<svg width="117" height="117" viewBox="0 0 117 117" fill="none" xmlns="http://www.w3.org/2000/svg">
<path d="M57.0274 85.9975C56.5423 86.0161 56.0588 85.9317 55.6087 85.7498C55.1586 85.568 54.7521 85.2927 54.4159 84.9423C46.3058 76.8249 38.1978 68.7074 30.0918 60.59C29.4273 59.9449 29.0371 59.0681 29.0025 58.1422C28.9679 57.2164 29.2916 56.3129 29.9061 55.6199C30.0139 55.4881 30.1337 55.3682 30.2535 55.2483C38.2397 47.2547 46.226 39.2612 54.2122 31.2676C55.6437 29.8288 57.5065 29.595 59.0519 30.6681C59.281 30.8285 59.4937 31.0113 59.6868 31.2137L83.7833 55.3322C84.1657 55.6698 84.4719 56.0849 84.6817 56.55C84.8915 57.0152 85 57.5197 85 58.03C85 58.5404 84.8915 59.0449 84.6817 59.51C84.4719 59.9751 84.1657 60.3903 83.7833 60.7278L59.6628 84.8823C59.326 85.2424 58.9173 85.5278 58.4633 85.7199C58.0094 85.9119 57.5201 86.0065 57.0274 85.9975ZM69.6416 57.982C69.6543 57.5567 69.5783 57.1334 69.4184 56.7391C69.2586 56.3448 69.0184 55.9881 68.7132 55.6919C65.5687 52.5324 62.4241 49.367 59.2495 46.2315C58.9508 45.9127 58.5889 45.6596 58.187 45.4885C57.7851 45.3173 57.3521 45.2319 56.9153 45.2375C56.4786 45.2431 56.0479 45.3398 55.6505 45.5212C55.2532 45.7027 54.898 45.965 54.6075 46.2915L45.3175 55.59C44.9841 55.8865 44.7165 56.2498 44.5322 56.6563C44.3479 57.0629 44.2509 57.5036 44.2475 57.9501C44.2442 58.3965 44.3344 58.8387 44.5126 59.248C44.6907 59.6573 44.9527 60.0246 45.2816 60.3262C45.8506 60.9257 46.4316 61.4832 47.0066 62.0588L54.5416 69.6007C54.8318 69.9314 55.187 70.1986 55.585 70.3857C55.983 70.5729 56.4153 70.6758 56.8549 70.6882C57.2944 70.7006 57.7319 70.6221 58.1397 70.4577C58.5476 70.2933 58.9173 70.0464 59.2256 69.7326C62.3921 66.5791 65.5547 63.4137 68.7132 60.2362C69.0171 59.9466 69.2568 59.5962 69.4168 59.2079C69.5767 58.8196 69.6533 58.4019 69.6416 57.982Z" fill="#F15F51"/>
</svg>
